<svg xmlns="http://www.w3.org/2000/svg" width="64" height="64" fill="none" class="bi bi-display-fill" viewBox="0 0 16 16">
    <defs>
        <linearGradient id="grad4" x1="0%" y1="0%" x2="100%" y2="100%">
            <stop offset="0%" style="stop-color:#667eea;stop-opacity:1" />
            <stop offset="100%" style="stop-color:#764ba2;stop-opacity:1" />
        </linearGradient>
    </defs>
    <path d="M6 12q0 1-.25 1.5H5a.5.5 0 0 0 0 1h6a.5.5 0 0 0 0-1h-.75Q10 13 10 12h4c2 0 2-2 2-2V4c0-2-2-2-2-2H2C0 2 0 4 0 4v6c0 2 2 2 2 2z" fill="url(#grad4)"/>
</svg>
